<?xml version="1.0" encoding="UTF-8"?>
<svg id="Layer_1" data-name="Layer 1" xmlns="http://www.w3.org/2000/svg" xmlns:xlink="http://www.w3.org/1999/xlink" version="1.1" viewBox="0 0 138.52 130.38">
  <defs>
    <style>
      .cls-1 {
        fill: url(#linear-gradient);
        fill-rule: evenodd;
        stroke-width: 0px;
      }
    </style>
    <linearGradient id="linear-gradient" x1="-140.74" y1="64.97" x2="279.26" y2="64.97" gradientTransform="translate(0 .22)" gradientUnits="userSpaceOnUse">
      <stop offset="0" stop-color="#7b4397"/>
      <stop offset="1" stop-color="#dc2430"/>
    </linearGradient>
  </defs>
  <path class="cls-1" d="M0,44.82H0C0,46.16.64,47.48,1.91,48.28l19.38,12.11,41.49-25.93c3.96-2.48,8.99-2.48,12.96,0l41.49,25.93,19.38-12.11c1.27-.8,1.91-2.12,1.91-3.45v-.02c0-1.33-.64-2.65-1.91-3.45L71.42.62c-1.32-.83-3-.83-4.32,0L1.91,41.36c-1.28.8-1.91,2.12-1.91,3.45h0ZM138.52,85.56c0-1.33-.64-2.65-1.91-3.45l-19.38-12.11-41.49,25.93c-3.96,2.48-8.99,2.48-12.96,0l-41.49-25.93L1.91,82.11C.63,82.91,0,84.23,0,85.56H0c0,1.34.64,2.66,1.91,3.46l65.19,40.74c.66.41,1.41.62,2.16.62s1.5-.21,2.16-.62l65.19-40.74c1.27-.8,1.91-2.12,1.91-3.45v-.02h0ZM71.42,89.02l38.12-23.83-38.12-23.83c-1.32-.83-3-.83-4.32,0l-38.12,23.83,38.12,23.83c1.32.83,3,.83,4.32,0Z"/>
</svg>