<?xml version="1.0" encoding="UTF-8"?>
<svg id="Layer_1" data-name="Layer 1" xmlns="http://www.w3.org/2000/svg" xmlns:xlink="http://www.w3.org/1999/xlink" version="1.1" viewBox="0 0 542.94 91.33">
  <defs>
    <style>
      .cls-1 {
        fill: url(#linear-gradient);
        fill-rule: evenodd;
      }

      .cls-1, .cls-2 {
        stroke-width: 0px;
      }

      .cls-2 {
        fill: #fff;
      }
    </style>
    <linearGradient id="linear-gradient" x1="-98.6" y1="45.45" x2="195.67" y2="45.45" gradientTransform="translate(0 .22)" gradientUnits="userSpaceOnUse">
      <stop offset="0" stop-color="#7b4397"/>
      <stop offset="1" stop-color="#dc2430"/>
    </linearGradient>
  </defs>
  <path class="cls-1" d="M0,31.39H0c0,.94.45,1.86,1.34,2.42l13.58,8.49,29.07-18.17c2.78-1.74,6.3-1.74,9.08,0l29.07,18.17,13.58-8.49c.89-.56,1.34-1.49,1.34-2.41h0c0-.94-.45-1.87-1.34-2.43L50.06.43c-.93-.58-2.1-.58-3.03,0L1.36,28.97C.47,29.53.02,30.46.02,31.4h-.01ZM97.06,59.93c0-.93-.45-1.86-1.34-2.41l-13.58-8.49-29.07,18.17c-2.78,1.74-6.3,1.74-9.08,0l-29.07-18.17L1.34,57.52c-.89.56-1.34,1.49-1.34,2.42h0c0,.94.45,1.86,1.34,2.42l45.67,28.54c.46.29.99.43,1.51.43s1.05-.14,1.51-.43l45.67-28.54c.89-.56,1.34-1.49,1.34-2.41h0l.02-.02ZM50.05,62.36l26.71-16.69-26.71-16.69c-.93-.58-2.1-.58-3.03,0l-26.71,16.69,26.71,16.69c.93.58,2.1.58,3.03,0Z"/>
  <g>
    <path class="cls-2" d="M153.15,25.79c1.01,0,1.87.36,2.59,1.09.72.72,1.09,1.59,1.09,2.59s-.36,1.89-1.09,2.62-1.59,1.09-2.59,1.09h-19.91c-.8,0-1.49.28-2.08.85-.58.58-.87,1.28-.87,2.1s.29,1.49.87,2.08c.58.58,1.27.87,2.08.87h13.28c2.83,0,5.26,1.01,7.29,3.02,2.01,2.01,3.02,4.44,3.02,7.29s-1.01,5.28-3.02,7.29c-2.03,2.01-4.46,3.02-7.29,3.02h-19.91c-1.02,0-1.89-.36-2.59-1.09-.72-.71-1.09-1.57-1.09-2.59s.36-1.89,1.09-2.59c.71-.72,1.57-1.09,2.59-1.09h19.91c.8,0,1.49-.29,2.08-.87.58-.58.87-1.27.87-2.08s-.29-1.49-.87-2.08c-.58-.58-1.27-.87-2.08-.87h-13.28c-2.83,0-5.26-1.01-7.29-3.02-2.01-2.03-3.02-4.46-3.02-7.29s1.01-5.28,3.02-7.29,4.46-3.04,7.29-3.04h19.91Z"/>
    <path class="cls-2" d="M190.89,25.79c1.01,0,1.87.36,2.59,1.09.72.72,1.09,1.59,1.09,2.59s-.36,1.89-1.09,2.62c-.72.71-1.59,1.06-2.59,1.06h-9.58v22.86c0,1.02-.36,1.89-1.09,2.59-.72.72-1.6,1.09-2.62,1.09s-1.87-.36-2.59-1.09c-.72-.71-1.09-1.57-1.09-2.59v-22.86h-9.58c-1.02,0-1.89-.35-2.59-1.06-.72-.72-1.09-1.6-1.09-2.62s.36-1.87,1.09-2.59c.71-.72,1.57-1.09,2.59-1.09h26.55Z"/>
    <path class="cls-2" d="M232.21,56.01c0,1.01-.36,1.87-1.09,2.59-.71.72-1.57,1.09-2.59,1.09s-1.87-.36-2.59-1.09c-.72-.72-1.09-1.59-1.09-2.59v-13.63c0-2.5-.92-4.64-2.76-6.42-1.87-1.82-4.14-2.74-6.79-2.74s-4.9.91-6.77,2.74c-1.84,1.78-2.76,3.92-2.76,6.42v4.74l8.35-8.37c.72-.72,1.59-1.09,2.59-1.09s1.89.36,2.59,1.09c.72.71,1.09,1.57,1.09,2.59s-.36,1.89-1.09,2.59l-14.36,14.36c-.74.93-1.69,1.39-2.85,1.39-1.02,0-1.89-.36-2.59-1.09-.72-.72-1.09-1.59-1.09-2.59v-13.63c0-4.54,1.67-8.44,5-11.68,3.32-3.21,7.28-4.81,11.89-4.81s8.59,1.6,11.91,4.81c3.33,3.24,5,7.13,5,11.68v13.63h0Z"/>
    <path class="cls-2" d="M266.39,25.79c1.01,0,1.87.36,2.59,1.09.72.72,1.09,1.59,1.09,2.59s-.36,1.89-1.09,2.62c-.72.71-1.59,1.06-2.59,1.06h-9.58v22.86c0,1.02-.36,1.89-1.09,2.59-.72.72-1.6,1.09-2.62,1.09s-1.87-.36-2.59-1.09c-.72-.71-1.09-1.57-1.09-2.59v-22.86h-9.58c-1.02,0-1.89-.35-2.59-1.06-.72-.72-1.09-1.6-1.09-2.62s.36-1.87,1.09-2.59c.71-.72,1.57-1.09,2.59-1.09h26.55Z"/>
    <path class="cls-2" d="M273.96,29.52c0-1.01.36-1.87,1.09-2.59.71-.72,1.57-1.09,2.59-1.09s1.89.36,2.62,1.09c.71.72,1.06,1.59,1.06,2.59v26.54c0,1.02-.35,1.89-1.06,2.59-.72.72-1.6,1.09-2.62,1.09s-1.89-.36-2.59-1.09c-.72-.71-1.09-1.57-1.09-2.59v-26.54Z"/>
    <path class="cls-2" d="M315.95,25.86c1.01,0,1.87.36,2.59,1.09.72.72,1.09,1.59,1.09,2.59s-.36,1.89-1.09,2.62c-.72.72-1.59,1.09-2.59,1.09h-13.66c-2.52,0-4.67.92-6.46,2.76-1.82,1.87-2.74,4.14-2.74,6.82s.91,4.92,2.74,6.79c1.79,1.86,3.95,2.78,6.46,2.78h13.66c1.01,0,1.87.36,2.59,1.09.72.71,1.09,1.57,1.09,2.59s-.36,1.89-1.09,2.59c-.72.72-1.59,1.09-2.59,1.09h-13.66c-4.58,0-8.48-1.67-11.72-5.02-3.22-3.32-4.84-7.29-4.84-11.91s1.61-8.62,4.84-11.94c3.24-3.35,7.15-5.02,11.72-5.02h13.66Z"/>
    <path class="cls-2" d="M354.54,33.2v19.11h9.95c2.5,0,4.65-.92,6.44-2.76,1.81-1.87,2.71-4.14,2.71-6.79s-.9-4.92-2.71-6.79c-1.79-1.84-3.94-2.76-6.44-2.76h-9.95ZM347.18,29.52c0-1.02.36-1.89,1.09-2.59.71-.72,1.57-1.09,2.59-1.09h13.63c4.56,0,8.46,1.67,11.7,5,3.21,3.32,4.81,7.29,4.81,11.91s-1.6,8.59-4.81,11.91c-3.24,3.33-7.14,5-11.7,5h-13.63c-1.02,0-1.89-.35-2.59-1.06-.72-.72-1.09-1.6-1.09-2.62v-26.47h0Z"/>
    <path class="cls-2" d="M415.04,59.66c1.01,0,1.86-.35,2.57-1.06s1.09-1.59,1.09-2.59-.36-1.89-1.09-2.59c-.71-.72-1.56-1.09-2.57-1.09h-19.81c-.8,0-1.49-.28-2.05-.85s-.87-1.27-.87-2.08.29-1.49.87-2.08c.57-.57,1.25-.85,2.05-.85h19.81c1.01,0,1.86-.36,2.57-1.09.72-.71,1.09-1.57,1.09-2.59s-.36-1.87-1.09-2.59c-.71-.71-1.56-1.06-2.57-1.06h-19.81c-.8,0-1.49-.29-2.05-.87-.58-.58-.87-1.27-.87-2.08s.29-1.49.87-2.05c.57-.58,1.25-.87,2.05-.87h19.81c1.01,0,1.86-.35,2.57-1.06s1.09-1.59,1.09-2.59-.36-1.89-1.09-2.59c-.71-.72-1.56-1.09-2.57-1.09h-19.81c-2.83,0-5.24,1.01-7.24,3.02-2.01,2.01-3.02,4.43-3.02,7.24,0,2.5.8,4.7,2.41,6.6-1.6,1.92-2.41,4.12-2.41,6.6,0,2.83,1.01,5.24,3.02,7.24,2,2.01,4.41,3.02,7.24,3.02h19.81Z"/>
    <path class="cls-2" d="M422.71,29.59c0-1.02.36-1.89,1.09-2.62.72-.72,1.59-1.09,2.59-1.09s1.89.36,2.62,1.09c.72.72,1.09,1.6,1.09,2.62v22.86h22.88c1.01,0,1.87.36,2.59,1.09.72.72,1.09,1.6,1.09,2.62s-.36,1.89-1.09,2.59c-.72.72-1.59,1.09-2.59,1.09h-26.58c-.52,0-1.02-.11-1.51-.33-.03,0-.06,0-.07-.02-.03-.02-.06-.03-.09-.05-.02-.02-.04-.03-.07-.05s-.06-.02-.07-.02c-.03-.03-.06-.05-.09-.05-.02-.02-.04-.03-.07-.05-.03-.03-.06-.05-.07-.05h0s-.06-.04-.07-.07c-.03-.02-.06-.03-.07-.05-.03-.02-.06-.03-.07-.05-.03-.02-.06-.03-.07-.05-.02-.03-.04-.06-.07-.07-.02-.02-.04-.03-.07-.05-.02-.03-.03-.06-.05-.07-.03-.02-.06-.04-.07-.07-.03-.02-.06-.03-.07-.05-.02-.03-.03-.06-.05-.07-.03-.02-.06-.04-.07-.07-.02-.02-.03-.04-.05-.07-.03-.02-.06-.04-.07-.07-.02-.02-.03-.04-.05-.07-.02-.02-.03-.04-.05-.07-.02-.02-.03-.04-.05-.07-.02-.02-.03-.04-.05-.07l-.05-.07s-.03-.06-.05-.07c-.02-.03-.03-.06-.05-.09-.02-.02-.03-.04-.05-.07-.02-.02-.03-.04-.05-.07,0-.03,0-.06-.02-.09-.22-.47-.33-.97-.33-1.51v-26.56h0Z"/>
    <path class="cls-2" d="M460.42,29.52c0-1.01.36-1.87,1.09-2.59.71-.72,1.57-1.09,2.59-1.09s1.89.36,2.62,1.09c.71.72,1.06,1.59,1.06,2.59v26.54c0,1.02-.35,1.89-1.06,2.59-.72.72-1.6,1.09-2.62,1.09s-1.89-.36-2.59-1.09c-.72-.71-1.09-1.57-1.09-2.59v-26.54Z"/>
    <path class="cls-2" d="M472.62,31.14c-.46-.91-.53-1.85-.21-2.81.33-.96.94-1.67,1.84-2.12.91-.44,1.85-.5,2.81-.19s1.66.93,2.1,1.84l6.63,13.23,3.35,6.68,3.33-6.68,6.63-13.23c.46-.91,1.16-1.53,2.12-1.84s1.89-.25,2.78.19c.9.46,1.51,1.16,1.84,2.12.31.96.24,1.89-.21,2.81l-6.6,13.23-6.6,13.21c-.36.74-.91,1.29-1.65,1.65-.91.46-1.85.53-2.81.21-.94-.33-1.64-.94-2.1-1.84l-6.63-13.23-6.6-13.23h-.02Z"/>
    <path class="cls-2" d="M517.13,45.93v10.02c0,.99-.35,1.83-1.06,2.52-.69.71-1.53,1.06-2.52,1.06s-1.84-.35-2.55-1.06-1.04-1.53-1.04-2.52v-26.51c0-.99.35-1.83,1.04-2.52s1.56-1.06,2.55-1.06h19.34c2.77,0,5.13.98,7.1,2.95s2.95,4.33,2.95,7.1h0c0,2.75-.98,5.11-2.95,7.08-1.64,1.62-3.58,2.58-5.83,2.88l7.71,7.71c.69.69,1.04,1.53,1.04,2.52s-.35,1.84-1.04,2.55c-.69.69-1.53,1.04-2.52,1.04s-1.84-.35-2.55-1.04l-12.71-12.71h-6.96,0ZM517.13,38.76h15.76c.79,0,1.46-.28,2.03-.85.57-.55.85-1.22.85-2h0c0-.79-.28-1.46-.85-2.03s-1.24-.85-2.03-.85h-15.76v5.73Z"/>
  </g>
</svg>