<svg width="351" height="65" viewBox="0 0 351 65" fill="none" xmlns="http://www.w3.org/2000/svg">
<g clip-path="url(#clip0_265_573)">
<path d="M341.697 12.6036C336.196 12.6036 332.295 17.405 328.294 22.8065C325.793 11.4032 322.992 0 314.19 0C305.387 0 302.586 11.4032 300.085 22.8065C296.084 17.405 292.183 12.6036 286.682 12.6036C283.181 12.6036 277.279 15.0043 277.279 23.8068V39.9114C277.279 48.6139 281.88 50.7145 284.681 51.4147C289.482 52.615 301.086 53.8153 314.089 53.8153C327.093 53.8153 338.696 52.615 343.498 51.4147C346.299 50.7145 350.9 48.6139 350.9 39.9114V23.8068C350.9 14.9042 345.098 12.6036 341.697 12.6036ZM314.19 5.00142C319.491 5.00142 321.492 15.4044 324.292 28.008C321.192 31.8091 317.891 34.9099 314.19 34.9099C310.488 34.9099 307.087 31.8091 304.087 28.008C306.687 16.3046 308.688 5.00142 314.19 5.00142ZM282.38 39.9114V23.8068C282.38 18.2052 285.381 17.605 286.682 17.605C290.583 17.605 294.684 24.0068 298.585 29.2083C295.784 40.9117 292.783 48.0137 285.781 46.6133C284.081 46.1131 282.38 44.9128 282.38 39.9114ZM296.084 48.0137C299.085 44.7127 301.086 39.4112 302.586 33.9097C305.787 37.3106 309.588 39.8113 314.19 39.8113C318.791 39.8113 322.492 37.3106 325.793 33.9097C327.293 39.4112 329.294 44.7127 332.295 48.0137C326.893 48.5138 320.391 48.8139 314.19 48.8139C307.988 48.8139 301.386 48.5138 296.084 48.0137ZM345.999 39.9114C345.999 44.9128 344.298 46.1131 342.498 46.6133C335.496 48.1137 332.595 40.9117 329.794 29.2083C333.795 24.0068 337.896 17.605 341.697 17.605C342.998 17.605 345.999 18.2052 345.999 23.8068V39.9114Z" fill="#1B44DA"/>
<path d="M1.10031 52.1149C0.800228 52.1149 0.500142 52.0148 0.300086 51.8148C0.100029 51.5147 0 51.2146 0 50.9145C0 50.7145 0 50.5144 0.100029 50.4144L14.004 13.7039C14.104 13.3038 14.3041 13.0037 14.6042 12.7036C15.0043 12.4035 15.4044 12.3035 15.8045 12.3035H20.8059C21.3061 12.3035 21.7062 12.4035 22.0063 12.7036C22.3064 13.0037 22.5064 13.3038 22.7065 13.7039L36.5104 50.3143C36.5104 50.5144 36.6104 50.6144 36.6104 50.8145C36.6104 51.1146 36.5104 51.4147 36.3103 51.6147C36.1103 51.8148 35.8102 51.9148 35.5101 51.9148H31.609C31.2089 51.9148 30.8088 51.8148 30.5087 51.5147C30.3086 51.3146 30.2086 51.1146 30.0085 50.8145L27.1077 43.3123H9.50271L6.60188 51.0145C6.50185 51.3146 6.3018 51.5147 6.10174 51.7147C5.80165 52.0148 5.40154 52.1149 5.00142 52.1149H1.10031ZM11.3032 37.9108H25.4072L18.3052 19.1054L11.3032 37.9108Z" fill="#1B44DA"/>
<path d="M42.5121 62.8179C41.8119 62.8179 41.2117 62.3178 41.2117 61.6176V61.5175V23.9068C41.2117 23.2066 41.7119 22.6064 42.4121 22.6064H42.5121H46.1131C46.8133 22.6064 47.4135 23.1066 47.4135 23.8068V23.9068V26.3075C48.4138 25.1072 49.6141 24.0068 51.0145 23.3066C52.715 22.4064 54.6156 22.0063 56.6161 22.0063C58.4166 21.9062 60.2172 22.3064 61.9176 23.0066C63.318 23.6067 64.6184 24.607 65.6187 25.8074C66.619 27.1077 67.4192 28.5081 67.8193 30.1086C68.3195 31.8091 68.6195 33.5096 68.7196 35.3101C68.7196 35.9102 68.8196 36.6104 68.8196 37.3106C68.8196 38.0108 68.8196 38.611 68.7196 39.3112C68.7196 41.1117 68.4195 42.8122 67.9194 44.5127C67.4192 46.0131 66.719 47.5135 65.7187 48.7139C64.7184 49.9142 63.4181 50.9145 62.0177 51.6147C60.3172 52.3149 58.5167 52.715 56.6161 52.615C54.7156 52.715 52.9151 52.3149 51.2146 51.4147C49.8142 50.7145 48.6139 49.7142 47.7136 48.4138V61.4175C47.7136 61.8176 47.6136 62.1177 47.3135 62.3178C47.0134 62.6178 46.7133 62.7179 46.3132 62.7179L42.5121 62.8179ZM55.0157 47.3135C56.5161 47.4135 57.9165 47.0134 59.2169 46.1131C60.2172 45.3129 61.0174 44.3126 61.4175 43.1123C61.9176 41.8119 62.1177 40.4115 62.2177 39.0111C62.3178 37.9108 62.3178 36.8105 62.2177 35.7102C62.1177 34.3098 61.9176 32.9094 61.4175 31.609C61.0174 30.4087 60.2172 29.4084 59.2169 28.6082C58.0165 27.7079 56.5161 27.3078 55.0157 27.4078C52.1148 27.2078 49.5141 28.9082 48.5138 31.609C48.0137 32.8094 47.8136 34.1097 47.7136 35.4101C47.7136 36.1103 47.6136 36.8105 47.6136 37.6107C47.6136 38.411 47.6136 39.1111 47.7136 39.8113C47.7136 41.0117 48.0137 42.3121 48.5138 43.4124C49.014 44.5127 49.8142 45.513 50.9145 46.3132C52.1148 47.0134 53.6153 47.4135 55.0157 47.3135Z" fill="#1B44DA"/>
<path d="M75.7216 62.8179C75.0214 62.8179 74.4212 62.3178 74.4212 61.6176C74.4212 61.6176 74.4212 61.6176 74.4212 61.5175V23.9068C74.4212 23.2066 74.9213 22.6064 75.6215 22.6064H75.7216H79.3226C79.6227 22.6064 80.0228 22.7065 80.2229 23.0066C80.4229 23.2066 80.623 23.6067 80.623 23.9068V26.3075C81.6233 25.1072 82.8236 24.0068 84.224 23.3066C85.9245 22.4064 87.825 22.0063 89.7256 22.0063C91.5261 21.9062 93.3266 22.3064 95.0271 23.0066C96.4275 23.6067 97.7278 24.607 98.7281 25.8074C99.7284 27.1077 100.529 28.5081 100.929 30.1086C101.429 31.8091 101.729 33.5096 101.829 35.3101C101.829 35.9102 101.829 36.6104 101.829 37.3106C101.829 38.0108 101.829 38.611 101.829 39.3112C101.829 41.1117 101.529 42.8122 101.029 44.5127C100.529 46.0131 99.8284 47.5135 98.8282 48.7139C97.8279 49.9142 96.5275 50.9145 95.1271 51.6147C93.4266 52.3149 91.6261 52.715 89.7256 52.615C87.825 52.715 86.0245 52.3149 84.4241 51.4147C83.0237 50.7145 81.8233 49.7142 80.823 48.4138V61.4175C80.823 61.8176 80.723 62.1177 80.4229 62.3178C80.1228 62.6178 79.8227 62.7179 79.4226 62.7179L75.7216 62.8179ZM88.2251 47.3135C91.0259 47.6136 93.7267 45.8131 94.5269 43.1123C95.0271 41.8119 95.2271 40.4115 95.3272 39.0111C95.4272 37.9108 95.4272 36.8105 95.3272 35.7102C95.2271 34.3098 95.0271 32.9094 94.5269 31.609C93.6267 28.9082 91.0259 27.2078 88.2251 27.4078C85.3243 27.2078 82.7236 28.9082 81.7233 31.609C81.2231 32.8094 81.0231 34.1097 80.9231 35.4101C80.9231 36.0103 80.823 36.8105 80.823 37.6107C80.823 38.411 80.823 39.1111 80.9231 39.8113C80.9231 41.0117 81.2231 42.3121 81.7233 43.4124C82.2234 44.5127 83.0237 45.513 84.124 46.3132C85.3243 47.0134 86.7247 47.4135 88.2251 47.3135Z" fill="#1B44DA"/>
<path d="M122.235 52.615C119.334 52.715 116.433 52.2149 113.632 51.1146C111.532 50.3143 109.731 48.9139 108.331 47.1134C107.131 45.613 106.53 43.8125 106.43 41.9119C106.43 41.6119 106.53 41.3118 106.73 41.1117C106.93 40.9117 107.231 40.8116 107.531 40.8116H111.532C111.932 40.8116 112.232 40.9117 112.532 41.1117C112.732 41.3118 112.932 41.6119 113.132 41.9119C113.432 42.8122 113.832 43.6124 114.533 44.3126C115.333 45.2129 116.333 45.9131 117.433 46.3132C118.934 46.9134 120.534 47.1134 122.135 47.1134C125.136 47.1134 127.336 46.6133 128.737 45.613C130.137 44.7127 130.937 43.1123 130.837 41.4118C130.837 40.3115 130.437 39.3112 129.737 38.511C128.737 37.6107 127.536 36.9105 126.236 36.5104C124.636 35.9102 122.635 35.3101 120.034 34.6099C117.634 34.0097 115.233 33.1094 113.032 32.1092C111.332 31.3089 109.931 30.1086 108.831 28.5081C107.831 26.9077 107.331 25.0071 107.431 23.1066C107.431 21.106 108.031 19.1054 109.131 17.405C110.331 15.7045 112.132 14.3041 114.032 13.5039C116.433 12.5036 119.034 12.0034 121.735 12.1035C123.935 12.1035 126.036 12.4035 128.137 13.1037C129.837 13.7039 131.337 14.5041 132.738 15.7045C133.838 16.6047 134.838 17.8051 135.539 19.1055C136.139 20.2058 136.439 21.4061 136.539 22.7065C136.539 23.0066 136.439 23.3066 136.239 23.5067C136.039 23.7068 135.739 23.9068 135.339 23.9068H131.237C130.937 23.9068 130.637 23.8068 130.337 23.7068C130.037 23.5067 129.837 23.2066 129.737 22.8065C129.437 21.4061 128.537 20.1057 127.336 19.3055C125.736 18.3052 123.835 17.8051 121.935 17.9051C120.034 17.8051 118.134 18.3052 116.533 19.2055C115.133 20.0057 114.333 21.6062 114.433 23.2066C114.433 24.3069 114.733 25.3072 115.433 26.1074C116.333 27.0077 117.433 27.7079 118.634 28.108C120.534 28.8082 122.435 29.5084 124.435 30.0086C127.136 30.6087 129.737 31.509 132.238 32.5093C134.038 33.2095 135.539 34.5098 136.639 36.0103C137.639 37.6107 138.139 39.5113 138.039 41.4118C138.139 43.6124 137.439 45.8131 136.139 47.6136C134.738 49.4141 132.838 50.8145 130.737 51.6147C127.836 52.2149 125.036 52.715 122.235 52.615Z" fill="#1B44DA"/>
<path d="M143.841 17.405C143.441 17.405 143.141 17.3049 142.841 17.0049C142.641 16.8048 142.441 16.4047 142.441 16.1046V12.5036C142.441 12.1035 142.541 11.8034 142.841 11.5033C143.141 11.2032 143.441 11.1032 143.841 11.1032H148.142C148.542 11.1032 148.842 11.2032 149.142 11.5033C149.443 11.8034 149.543 12.1035 149.543 12.5036V16.1046C149.543 16.5047 149.443 16.8048 149.142 17.0049C148.842 17.2049 148.542 17.405 148.142 17.405H143.841ZM144.141 52.1149C143.741 52.1149 143.441 52.0148 143.141 51.7147C142.941 51.5147 142.741 51.1146 142.741 50.8145V23.9068C142.741 23.5067 142.841 23.2066 143.141 23.0066C143.441 22.8065 143.741 22.6064 144.141 22.6064H147.842C148.542 22.6064 149.142 23.1066 149.142 23.8068V23.9068V50.8145C149.142 51.2146 149.042 51.5147 148.742 51.7147C148.542 51.9148 148.142 52.1149 147.842 52.1149H144.141Z" fill="#1B44DA"/>
<path d="M168.548 64.5184C166.347 64.6184 164.047 64.2183 161.946 63.4181C160.446 62.8179 159.145 62.0177 157.945 60.9174C157.045 60.1171 156.345 59.0168 155.844 57.9165C155.544 57.1163 155.244 56.316 155.244 55.5158C155.144 55.1157 155.344 54.8156 155.544 54.5155C155.844 54.2154 156.144 54.1154 156.545 54.1154H160.446C160.746 54.1154 161.046 54.2154 161.346 54.3155C161.646 54.6156 161.846 54.9156 161.946 55.3158C162.246 55.9159 162.546 56.5161 162.946 57.0162C163.447 57.7164 164.147 58.2166 164.847 58.6167C165.947 59.1168 167.148 59.3169 168.448 59.3169C169.848 59.3169 171.249 59.1168 172.549 58.6167C173.649 58.2166 174.55 57.3163 175.05 56.316C175.65 54.9156 175.95 53.4152 175.95 51.8148V48.0137C174.95 49.214 173.75 50.1143 172.349 50.8145C170.649 51.6147 168.848 51.9148 166.948 51.9148C165.147 52.0148 163.247 51.6147 161.546 50.9145C160.146 50.3143 158.845 49.314 157.845 48.0137C156.845 46.7133 156.144 45.3129 155.644 43.7125C155.144 42.012 154.844 40.2115 154.844 38.4109C154.844 37.4107 154.844 36.3103 154.844 35.3101C154.844 33.6096 155.144 31.8091 155.644 30.1086C156.044 28.5081 156.845 27.0077 157.845 25.7073C158.845 24.407 160.146 23.4067 161.546 22.8065C163.247 22.0063 165.047 21.7062 166.948 21.7062C168.848 21.6062 170.749 22.1063 172.449 22.9065C173.85 23.7067 175.15 24.707 176.15 26.0074V24.0068C176.15 23.6067 176.25 23.3066 176.55 23.0066C176.85 22.7065 177.15 22.6064 177.551 22.6064H181.152C181.852 22.6064 182.452 23.2066 182.552 23.9068V24.0068V51.4146C182.652 53.8153 182.152 56.116 181.152 58.3166C180.251 60.3172 178.651 61.9176 176.75 62.9179C173.95 64.1183 171.249 64.7184 168.548 64.5184ZM168.348 46.8133C169.848 46.9134 171.249 46.5132 172.449 45.613C173.449 44.8128 174.25 43.8125 174.75 42.6121C175.25 41.4118 175.55 40.2115 175.65 38.9111C175.65 38.4109 175.75 37.8108 175.75 37.0105C175.75 36.2103 175.75 35.6101 175.65 35.21C175.55 33.9097 175.25 32.6093 174.75 31.509C174.25 30.3086 173.449 29.3083 172.449 28.5081C171.249 27.7079 169.748 27.3078 168.348 27.3078C166.848 27.2077 165.447 27.6079 164.147 28.5081C163.146 29.3083 162.346 30.3086 161.946 31.509C161.446 32.8093 161.246 34.2097 161.146 35.6101C161.146 36.6104 161.146 37.5107 161.146 38.4109C161.246 39.8113 161.446 41.2117 161.946 42.5121C162.346 43.7125 163.146 44.8128 164.147 45.613C165.447 46.5132 166.848 46.9134 168.348 46.8133Z" fill="#1B44DA"/>
<path d="M190.154 52.1148C189.754 52.1148 189.454 52.0148 189.154 51.7147C188.954 51.4147 188.754 51.1146 188.754 50.8145V23.9068C188.754 23.5067 188.854 23.2066 189.154 23.0066C189.454 22.8065 189.754 22.6064 190.154 22.6064H193.755C194.455 22.6064 195.056 23.1066 195.056 23.8068V23.9068V26.3075C196.056 25.0071 197.356 24.0068 198.857 23.2066C200.657 22.3064 202.558 21.9062 204.558 22.0063C206.659 21.9062 208.86 22.5064 210.66 23.6067C212.361 24.707 213.761 26.2075 214.561 28.008C215.561 30.1086 215.962 32.4092 215.962 34.8099V50.8145C215.962 51.2146 215.862 51.5147 215.561 51.7147C215.261 52.0148 214.961 52.1148 214.561 52.1148H210.66C210.36 52.1148 209.96 52.0148 209.76 51.7147C209.56 51.5147 209.36 51.1146 209.36 50.8145V35.11C209.46 33.1094 208.86 31.0088 207.559 29.4084C206.259 28.008 204.358 27.3078 202.458 27.4078C200.557 27.3078 198.657 28.008 197.256 29.4084C195.856 30.9088 195.156 33.0094 195.256 35.11V50.8145C195.256 51.2146 195.156 51.5147 194.856 51.7147C194.555 52.0148 194.255 52.1148 193.855 52.1148H190.154Z" fill="#1B44DA"/>
<path d="M230.966 52.615C229.165 52.615 227.365 52.2149 225.764 51.4146C224.264 50.7144 222.964 49.6141 222.063 48.3138C221.163 47.0134 220.663 45.513 220.663 43.9125C220.563 41.4118 221.763 39.1111 223.864 37.6107C226.364 35.9102 229.265 34.8099 232.266 34.5098L240.268 33.3095V32.0091C240.368 30.5087 239.868 29.1083 238.868 28.008C237.968 27.1077 236.467 26.6076 234.367 26.6076C233.066 26.5076 231.766 26.9077 230.666 27.5078C229.765 28.108 229.065 28.9082 228.665 29.9085C228.465 30.4087 227.965 30.7087 227.465 30.6087H223.964C223.664 30.6087 223.264 30.5087 223.064 30.3086C222.863 30.0085 222.763 29.7085 222.763 29.4084C222.863 28.7082 223.064 27.9079 223.464 27.3078C223.964 26.3075 224.664 25.5073 225.564 24.8071C226.665 23.9068 227.865 23.2066 229.265 22.8065C230.966 22.2063 232.766 21.9062 234.667 22.0063C236.667 21.9062 238.668 22.2063 240.569 22.9065C241.969 23.4067 243.269 24.2069 244.37 25.3072C245.27 26.3075 245.97 27.4078 246.47 28.7082C246.87 30.0085 247.17 31.3089 247.07 32.7093V50.8145C247.07 51.2146 246.97 51.5147 246.67 51.7147C246.37 52.0148 246.07 52.1148 245.67 52.1148H242.069C241.369 52.1148 240.769 51.6147 240.769 50.9145V50.8145V48.4138C240.168 49.214 239.568 49.8142 238.768 50.4144C237.868 51.1146 236.867 51.6147 235.767 52.0148C233.967 52.4149 232.466 52.715 230.966 52.615ZM232.566 47.8136C233.967 47.8136 235.267 47.5135 236.467 46.9134C237.668 46.2132 238.668 45.2129 239.268 44.0125C239.968 42.5121 240.368 40.8116 240.268 39.1111V37.7107L234.167 38.711C232.266 38.9111 230.366 39.5113 228.665 40.5115C227.565 41.1117 226.865 42.3121 226.765 43.6124C226.765 44.5127 227.065 45.3129 227.665 46.0131C228.265 46.6133 228.965 47.1134 229.865 47.4135C230.666 47.7136 231.666 47.8136 232.566 47.8136Z" fill="#1B44DA"/>
<path d="M254.573 52.1149C253.872 52.1149 253.272 51.6147 253.272 50.9145V50.8145V13.1037C253.272 12.4035 253.772 11.8034 254.472 11.8034H254.573H258.274C258.974 11.8034 259.574 12.3035 259.574 13.0037V13.1037V50.7145C259.574 51.4147 259.074 52.0148 258.374 52.0148H258.274H254.573V52.1149Z" fill="#1B44DA"/>
</g>
<defs>
<clipPath id="clip0_265_573">
<rect width="350.9" height="64.5" fill="white" transform="scale(1.00028)"/>
</clipPath>
</defs>
</svg>
