<?xml version="1.0" encoding="UTF-8"?>
<svg version="1.1" xmlns="http://www.w3.org/2000/svg" width="743" height="297">
<path d="M0 0 C17.65874207 14.04894397 32.99263558 33.10181573 40.140625 54.8125 C45.40663029 54.20571426 45.40663029 54.20571426 50.63183594 53.32714844 C59.46746215 51.61915804 68.17976329 51.41374164 77.140625 51.4375 C78.29931595 51.43831573 78.29931595 51.43831573 79.48141479 51.43914795 C91.77650825 51.47889313 103.28011148 52.3605595 115.140625 55.8125 C115.8737793 56.01085449 116.60693359 56.20920898 117.36230469 56.41357422 C139.97926709 62.61277216 159.19995628 74.82544508 176.140625 90.8125 C176.87796875 91.48539062 177.6153125 92.15828125 178.375 92.8515625 C192.39089894 106.1219349 201.75763187 123.15751643 209.140625 140.8125 C209.59050781 140.36519531 210.04039062 139.91789063 210.50390625 139.45703125 C211.14714844 138.85246094 211.79039062 138.24789062 212.453125 137.625 C213.37544922 136.73748047 213.37544922 136.73748047 214.31640625 135.83203125 C224.22082049 128.74962162 233.44593912 128.1234941 245.18359375 128.32421875 C246.80453898 128.33356456 248.4254985 128.34067229 250.04646301 128.34565735 C254.27670494 128.36458855 258.50606445 128.41356553 262.73596191 128.46917725 C267.06669178 128.52067286 271.39756669 128.54323554 275.72851562 128.56835938 C284.19966536 128.6217015 292.66993316 128.70951961 301.140625 128.8125 C301.140625 137.7225 301.140625 146.6325 301.140625 155.8125 C294.47939453 155.90337891 294.47939453 155.90337891 287.68359375 155.99609375 C284.14462199 156.04705494 280.60566717 156.09897416 277.06671906 156.15154266 C273.32990909 156.20678692 269.59309235 156.26033951 265.85620117 156.30981445 C262.25757857 156.35752374 258.65905063 156.40986887 255.06054115 156.46544075 C253.68703885 156.48583457 252.31351062 156.50455255 250.93996239 156.52157402 C249.01745015 156.54568357 247.09502259 156.57628238 245.17260742 156.60717773 C244.07784592 156.62272202 242.98308441 156.6382663 241.85514832 156.65428162 C239.04440396 156.69985656 239.04440396 156.69985656 236.140625 157.8125 C233.42620589 162.33653186 232.93286661 166.47247041 232.828125 171.6875 C232.77205078 173.50894531 232.77205078 173.50894531 232.71484375 175.3671875 C233.21728639 179.43282424 234.19218887 181.01380931 237.140625 183.8125 C241.16840666 185.12934492 245.26109196 184.98396078 249.45703125 185.0234375 C251.12566043 185.0515311 252.79428008 185.08019569 254.46289062 185.109375 C257.07364372 185.1503931 259.6842237 185.18730773 262.29516602 185.21386719 C276.72393739 185.37310394 290.05046772 185.74263325 300.890625 196.55859375 C306.89816753 203.78266365 309.73822333 213.50696128 310.140625 222.8125 C310.1921875 223.76511719 310.24375 224.71773437 310.296875 225.69921875 C310.70048898 239.64071831 308.15632606 253.61971982 298.453125 264.125 C291.98254674 270.73905006 284.61722931 273.23822738 275.56982422 273.38012695 C272.19385681 273.39735528 268.82082481 273.35245316 265.4453125 273.30078125 C263.6435749 273.29144046 261.84182449 273.28433034 260.04006958 273.27934265 C255.32816693 273.26037231 250.61705113 273.21135923 245.90545654 273.15582275 C241.08551676 273.10441359 236.2654482 273.08178261 231.4453125 273.05664062 C222.01001767 273.00322903 212.57551027 272.91537653 203.140625 272.8125 C203.140625 264.2325 203.140625 255.6525 203.140625 246.8125 C206.14579224 246.79062622 206.14579224 246.79062622 209.21166992 246.76831055 C215.83750463 246.71793119 222.46310515 246.65133031 229.08870983 246.57678509 C233.10509922 246.5320932 237.12138746 246.49283465 241.13793945 246.46606445 C245.01551804 246.44001939 248.89270712 246.39960899 252.77004433 246.34931374 C254.24792949 246.33265305 255.72588202 246.32113378 257.20384789 246.31488609 C259.27718124 246.30523585 261.34951996 246.2771683 263.42260742 246.24487305 C264.60175217 246.23376999 265.78089691 246.22266693 266.99577332 246.21122742 C270.47614335 245.76996052 272.34903587 244.90399129 275.140625 242.8125 C278.15232074 238.25886853 278.52339734 234.58225375 278.453125 229.1875 C278.44925781 227.89585937 278.44539062 226.60421875 278.44140625 225.2734375 C278.17546616 221.16362452 278.17546616 221.16362452 276.140625 217.8125 C271.02492667 215.18596879 266.8017504 214.38174704 261.0390625 214.40625 C259.90158066 214.38999573 259.90158066 214.38999573 258.74111938 214.37341309 C256.33253449 214.33940968 253.92441714 214.32363165 251.515625 214.3125 C221.27888119 214.17089033 221.27888119 214.17089033 211.140625 204.8125 C208.66004263 202.00933068 206.85400426 199.13510172 205.140625 195.8125 C204.72683594 195.03132812 204.31304688 194.25015625 203.88671875 193.4453125 C199.02122008 182.01901946 199.68537773 166.53887735 201.87109375 154.5 C202.19839625 150.02212231 200.97780697 147.30901004 198.765625 143.5625 C198.40202881 142.91772705 198.03843262 142.2729541 197.66381836 141.60864258 C191.73899573 131.35808003 184.23669728 122.40634164 176.140625 113.8125 C175.54121094 113.14863281 174.94179688 112.48476562 174.32421875 111.80078125 C151.64876307 87.65607358 116.42650622 74.52574012 83.79150391 72.83178711 C69.18017111 72.42506587 54.27625389 74.13772646 40.140625 77.8125 C38.34400213 74.91180722 36.77525037 72.10564865 35.515625 68.9375 C30.94861646 58.47362602 24.55121697 48.47423087 17.140625 39.8125 C16.44195312 38.99265625 15.74328125 38.1728125 15.0234375 37.328125 C-5.13901463 14.30525579 -31.91729369 0.78650017 -62.421875 -2.125 C-95.44836291 -3.35490207 -123.59905959 8.89754129 -147.97265625 30.703125 C-173.07430274 54.64778177 -183.21317532 87.14309087 -185.859375 120.8125 C-186.189375 120.8125 -186.519375 120.8125 -186.859375 120.8125 C-187.68623809 84.29059329 -187.68623809 84.29059329 -182.859375 66.8125 C-182.55128906 65.60980469 -182.24320313 64.40710938 -181.92578125 63.16796875 C-181.27723628 60.70101538 -180.59839099 58.2534922 -179.859375 55.8125 C-216.38890292 48.56290197 -254.29028995 55.64522045 -285.61523438 75.95068359 C-292.87838077 80.94246969 -299.45487375 86.77895794 -305.859375 92.8125 C-306.52324219 93.41191406 -307.18710937 94.01132813 -307.87109375 94.62890625 C-313.99156868 100.37693849 -318.85799422 107.06084239 -323.58154297 113.96777344 C-324.70763415 115.59344118 -325.89079063 117.17926167 -327.08203125 118.7578125 C-333.84788646 128.95522056 -332.85854324 140.6730826 -332.76513672 152.51855469 C-332.859375 154.8125 -332.859375 154.8125 -333.859375 155.8125 C-335.5355673 155.90942006 -337.21578359 155.93765844 -338.89477539 155.93847656 C-340.50764183 155.94418671 -340.50764183 155.94418671 -342.15309143 155.95001221 C-343.91229164 155.95155304 -343.91229164 155.95155304 -345.70703125 155.953125 C-348.1738373 155.97146118 -350.64063442 155.99103223 -353.10742188 156.01171875 C-357.00918501 156.04064067 -360.91037874 156.06249856 -364.81225586 156.06298828 C-368.56936559 156.06633069 -372.32515183 156.10094379 -376.08203125 156.140625 C-377.81997704 156.13002045 -377.81997704 156.13002045 -379.59303284 156.11920166 C-386.59243743 156.22391056 -391.49146125 157.11916815 -396.859375 161.8125 C-398.54618351 163.80099204 -398.54618351 163.80099204 -399.296875 166 C-399.58433594 166.67417969 -399.87179687 167.34835938 -400.16796875 168.04296875 C-402.14569921 175.9650642 -402.02847193 184.29248554 -402.0625 192.41015625 C-402.07105011 194.02161781 -402.07105011 194.02161781 -402.07977295 195.66563416 C-402.08915982 197.92201775 -402.09573157 200.17841466 -402.09960938 202.43481445 C-402.10935767 205.86889483 -402.14045877 209.30238661 -402.171875 212.73632812 C-402.17840265 214.94010065 -402.18365405 217.14387741 -402.1875 219.34765625 C-402.1998468 220.3635231 -402.2121936 221.37938995 -402.22491455 222.42604065 C-402.20254888 229.64065967 -401.68617986 236.75012807 -396.609375 242.25 C-389.4835486 246.298765 -382.37425917 246.1457485 -374.36328125 246.2265625 C-373.17459946 246.24592865 -371.98591766 246.2652948 -370.76121521 246.2852478 C-366.9815071 246.34481089 -363.20176816 246.3913363 -359.421875 246.4375 C-356.85220059 246.47570114 -354.2825387 246.51475411 -351.71289062 246.5546875 C-345.42845219 246.65208919 -339.14413976 246.73184446 -332.859375 246.8125 C-332.859375 255.3925 -332.859375 263.9725 -332.859375 272.8125 C-341.14435416 272.90329429 -349.42893889 272.97649774 -357.71428394 273.01974869 C-361.56256075 273.0405193 -365.41047608 273.06864072 -369.25854492 273.11425781 C-372.98036377 273.15809623 -376.70183754 273.181716 -380.42389488 273.19200897 C-381.83552155 273.19933294 -383.24713187 273.21363267 -384.65860939 273.23542023 C-398.39954839 273.43886186 -409.47838747 270.48790131 -419.76171875 261.0703125 C-432.35028614 247.79309262 -433.23819473 231.74146935 -432.9765625 214.30859375 C-432.96047976 212.85376907 -432.94479189 211.39893998 -432.92947388 209.94410706 C-432.89478938 206.91774326 -432.85154622 203.89164588 -432.80273438 200.86547852 C-432.74195327 197.02089527 -432.70872656 193.17661894 -432.68267632 189.33166409 C-432.65823837 186.33454532 -432.61599044 183.33786189 -432.56894302 180.34102058 C-432.54932778 178.92476548 -432.53569206 177.50841239 -432.52862167 176.09203911 C-432.44372136 162.01730377 -429.86944841 151.04177209 -419.859375 140.8125 C-408.6031633 130.69063521 -396.93802947 128.48282544 -382.16796875 128.6171875 C-380.98211685 128.6200174 -379.79626495 128.62284729 -378.57447815 128.62576294 C-374.81517116 128.63689006 -371.05610907 128.66198102 -367.296875 128.6875 C-364.73633158 128.69753944 -362.17578441 128.7066636 -359.61523438 128.71484375 C-353.36319876 128.73680492 -347.11130439 128.77020766 -340.859375 128.8125 C-340.73136002 128.20749664 -340.60334503 127.60249329 -340.47145081 126.97915649 C-340.29855026 126.17859833 -340.12564972 125.37804016 -339.94750977 124.55322266 C-339.77824478 123.7625943 -339.6089798 122.97196594 -339.43458557 122.15737915 C-338.57799905 118.66545467 -337.26646644 115.46056667 -335.796875 112.1875 C-335.49233398 111.50582764 -335.18779297 110.82415527 -334.87402344 110.12182617 C-328.97261801 97.25883822 -321.45327967 86.18878222 -311.859375 75.8125 C-311.39160645 75.30090332 -310.92383789 74.78930664 -310.44189453 74.26220703 C-293.04671701 55.43385319 -270.55768763 42.49461491 -245.859375 35.8125 C-245.1468457 35.60512207 -244.43431641 35.39774414 -243.70019531 35.18408203 C-220.51570932 28.6052631 -193.02235726 29.78635827 -169.859375 35.8125 C-168.98539062 34.41451172 -168.98539062 34.41451172 -168.09375 32.98828125 C-162.16895672 23.70205963 -155.66797991 15.57680077 -147.859375 7.8125 C-147.12203125 7.07515625 -146.3846875 6.3378125 -145.625 5.578125 C-105.45841375 -32.17242599 -43.02931603 -32.91860242 0 0 Z " fill="#FF8B00" transform="translate(432.859375,23.1875)"/>
<path d="M0 0 C6.08406976 4.83960095 7.84300898 9.7471905 9.8203125 17.01171875 C10.11036163 18.04076828 10.40041077 19.06981781 10.69924927 20.13005066 C11.54017992 23.13116158 12.36850965 26.13542676 13.19026184 29.14183807 C13.78043006 31.29871203 14.37396024 33.45464035 14.96813965 35.6104126 C17.97302439 46.51839432 20.94447534 57.43535224 23.90716553 68.3548584 C25.81284006 75.37706085 27.72210609 82.39828715 29.63187027 89.41937828 C30.29361448 91.85379594 30.95412927 94.28854461 31.61447144 96.7233429 C32.01622345 98.2020453 32.41800599 99.68073942 32.81982422 101.15942383 C33.00159714 101.83093979 33.18337006 102.50245575 33.37065125 103.19432068 C34.1028738 105.88564193 34.86769844 108.54059531 35.75 111.1875 C35.75423194 110.60089631 35.75846388 110.01429262 35.76282406 109.40991306 C35.86599654 95.15591235 35.97461391 80.90196191 36.08933926 66.64804935 C36.14468671 59.75504843 36.19817114 52.86204232 36.24731445 45.96899414 C36.2947016 39.32299898 36.3472213 32.67705743 36.40294075 26.03112602 C36.4233991 23.4892859 36.44210627 20.94743108 36.45907402 18.40556526 C36.48304124 14.85894557 36.51310595 11.3124281 36.54467773 7.76586914 C36.5504332 6.70348022 36.55618866 5.64109131 36.56211853 4.54650879 C36.57190735 3.58592056 36.58169617 2.62533234 36.59178162 1.63563538 C36.59823417 0.79588197 36.60468672 -0.04387144 36.6113348 -0.90907192 C36.75 -2.8125 36.75 -2.8125 37.75 -3.8125 C39.89558827 -3.90025605 42.04404421 -3.91945219 44.19140625 -3.91015625 C45.49658203 -3.90693359 46.80175781 -3.90371094 48.14648438 -3.90039062 C49.5351569 -3.89203401 50.92382877 -3.88356905 52.3125 -3.875 C53.70507656 -3.86998666 55.09765481 -3.86542347 56.49023438 -3.86132812 C59.9101987 -3.84949434 63.33007844 -3.8330088 66.75 -3.8125 C66.86703344 12.57347622 66.95508565 28.95931593 67.00906086 45.34560966 C67.03479366 52.95483281 67.06984909 60.56379559 67.12719727 68.17285156 C67.17718409 74.80837949 67.20932679 81.44371876 67.22044247 88.07942975 C67.22693565 91.5899633 67.24209131 95.09995736 67.27865028 98.61031723 C67.31922341 102.53832519 67.31993965 106.46581538 67.31762695 110.39404297 C67.33560333 111.545634 67.35357971 112.69722504 67.37210083 113.88371277 C67.31986514 122.10928448 65.71054938 129.08238131 59.84792042 135.15900993 C53.56137798 140.7609547 48.53047111 140.49595514 40.22119141 140.5925293 C38.83421788 140.61401398 37.44737642 140.64800425 36.06103516 140.69506836 C22.2194425 141.16020679 22.2194425 141.16020679 16.35009766 136.07055664 C10.92423279 129.68518958 9.15574804 123.50847659 7.02734375 115.4453125 C6.68497681 114.18420654 6.34260986 112.92310059 5.98986816 111.6237793 C5.06705818 108.2245151 4.15746738 104.82184438 3.25031662 101.41837311 C2.31110936 97.90417109 1.35940668 94.39336072 0.40844727 90.88232422 C-0.92184442 85.96701278 -2.24869231 81.05080076 -3.5704813 76.13319588 C-6.37338696 65.7060137 -9.2285374 55.2935441 -12.1022644 44.88568115 C-13.2178915 40.84376796 -14.32943364 36.80073226 -15.44140625 32.7578125 C-16.04416759 30.5676799 -16.64707913 28.37758869 -17.25 26.1875 C-17.58 26.1875 -17.91 26.1875 -18.25 26.1875 C-18.58 63.8075 -18.91 101.4275 -19.25 140.1875 C-28.82 140.1875 -38.39 140.1875 -48.25 140.1875 C-48.34045227 123.93183588 -48.41407004 107.67638804 -48.45724869 91.42054176 C-48.4778342 83.87190334 -48.5058775 76.32343291 -48.55175781 68.77490234 C-48.59174908 62.19211279 -48.61746194 55.60944496 -48.62635398 49.0265373 C-48.63154809 45.54403376 -48.64367097 42.06187832 -48.67292023 38.57948685 C-48.70538206 34.68264719 -48.70595156 30.78614153 -48.70410156 26.88916016 C-48.71848267 25.74691986 -48.73286377 24.60467957 -48.74768066 23.42782593 C-48.70652508 15.38982368 -47.66183877 7.78376248 -41.9375 1.75 C-29.90064393 -5.24817214 -12.47921385 -6.95956157 0 0 Z " fill="#FF6B00" transform="translate(552.25,155.8125)"/>
<path d="M0 0 C12.601875 -0.0825 25.20375 -0.165 38.1875 -0.25 C44.11819458 -0.30462402 44.11819458 -0.30462402 50.16870117 -0.36035156 C55.06115723 -0.37841797 55.06115723 -0.37841797 57.3639679 -0.3817749 C58.94510932 -0.38784836 60.52623425 -0.40177068 62.10725403 -0.42230225 C76.44765419 -0.59894164 89.15047452 0.57511348 100 11 C113.26857376 24.16305827 115.12771218 40.17708496 115.23828125 58.125 C115.246353 59.38530029 115.25442474 60.64560059 115.26274109 61.9440918 C115.27653312 64.60680769 115.2875622 67.26940197 115.29516602 69.93212891 C115.30398693 72.62995252 115.32478258 75.32725452 115.35668945 78.02490234 C115.7935814 117.88213934 115.7935814 117.88213934 102.15625 133.05078125 C94.43391082 140.44080666 84.67750067 144.16362177 74.13208008 144.11352539 C72.91233883 144.11370619 72.91233883 144.11370619 71.66795635 144.11389065 C69.03512019 144.11314411 66.40235476 144.10552765 63.76953125 144.09765625 C62.14432815 144.09618603 60.51912457 144.09516581 58.8939209 144.09460449 C52.86677338 144.08936091 46.839636 144.07539972 40.8125 144.0625 C27.344375 144.041875 13.87625 144.02125 0 144 C0 96.48 0 48.96 0 0 Z M30 27 C30 56.7 30 86.4 30 117 C33.04567669 118.52283835 36.22758249 118.18366881 39.5703125 118.203125 C40.32537079 118.20882507 41.08042908 118.21452515 41.85836792 118.22039795 C43.46057737 118.22985417 45.06280633 118.2363844 46.66503906 118.24023438 C49.09475728 118.24987994 51.52360757 118.28087081 53.953125 118.3125 C55.51301583 118.31903639 57.0729127 118.32428436 58.6328125 118.328125 C59.35083038 118.3404718 60.06884827 118.3528186 60.80862427 118.36553955 C68.98374536 118.33017048 75.17491068 115.68962213 81 110 C84.39131303 105.20538502 85.11633898 101.26577521 85.19287109 95.47216797 C85.20893402 94.36356415 85.22499695 93.25496033 85.24154663 92.11276245 C85.28622847 87.04002631 85.32707302 81.96741846 85.35009766 76.89453125 C85.36339644 74.22496229 85.39388087 71.55721207 85.43212891 68.88769531 C85.48712544 65.02646049 85.50880949 61.16626222 85.5234375 57.3046875 C85.54610687 56.12204315 85.56877625 54.9393988 85.59213257 53.72091675 C85.57280691 46.07540142 84.30682098 40.40206794 80 34 C77.8033169 31.71439875 77.8033169 31.71439875 75.375 30.4375 C74.61960937 29.98246094 73.86421875 29.52742188 73.0859375 29.05859375 C60.26418572 22.55167478 44.37836267 27 30 27 Z " fill="#FF6D00" transform="translate(375,152)"/>
<path d="M0 0 C1.02608871 -0.00807175 2.05217743 -0.01614349 3.10935974 -0.02445984 C5.27870008 -0.03825894 7.44806175 -0.04899966 9.61743164 -0.05688477 C11.81573945 -0.06837559 14.01402001 -0.08878105 16.2121582 -0.1184082 C44.82002707 -0.50346035 44.82002707 -0.50346035 55.43359375 7.98828125 C60.22927672 12.69597003 64.10310953 18.71973073 64.51153564 25.60630798 C64.51836365 26.54052078 64.52519165 27.47473358 64.53222656 28.43725586 C64.54183411 29.49943832 64.55144165 30.56162079 64.56134033 31.6559906 C64.56559021 32.80591995 64.56984009 33.9558493 64.57421875 35.140625 C64.57991882 36.32870255 64.5856189 37.51678009 64.5914917 38.74085999 C64.60094877 41.26188262 64.60747848 43.78291765 64.61132812 46.30395508 C64.6209765 50.12929498 64.65197021 53.95408442 64.68359375 57.77929688 C64.69012974 60.23306974 64.69537786 62.68684644 64.69921875 65.140625 C64.71156555 66.27233627 64.72391235 67.40404755 64.7366333 68.5700531 C64.70631636 79.58675149 63.24382934 90.9234482 55.37109375 99.23828125 C49.13814575 103.82230121 43.31182873 105.33137526 35.63793945 105.43115234 C34.50939041 105.44721527 33.38084137 105.4632782 32.21809387 105.47982788 C27.06639662 105.52457926 21.9147831 105.56576531 16.76293945 105.58837891 C14.05198197 105.6016882 11.34178257 105.62949425 8.63110352 105.67041016 C4.70721778 105.72961105 0.78369167 105.74708671 -3.140625 105.76171875 C-4.94269661 105.79572281 -4.94269661 105.79572281 -6.78117371 105.83041382 C-16.44603854 105.80634235 -23.60113825 103.5452131 -30.50390625 96.61328125 C-38.2962377 86.87286693 -38.7823521 74.86823431 -38.796875 62.9296875 C-38.8002034 61.96353012 -38.8035318 60.99737274 -38.80696106 60.00193787 C-38.81199872 57.96898877 -38.81437037 55.9360315 -38.81420898 53.90307617 C-38.81639724 50.81349952 -38.83459171 47.72427936 -38.85351562 44.63476562 C-38.85644996 42.64974079 -38.85843449 40.66471428 -38.859375 38.6796875 C-38.86656052 37.76691544 -38.87374603 36.85414337 -38.88114929 35.91371155 C-38.8423622 24.88973493 -36.65352354 16.58071092 -28.92578125 8.4453125 C-20.41720076 0.68410733 -10.98256891 0.08293617 0 0 Z M-12.47900391 31.4140625 C-13.98139978 35.10402332 -14.05926425 38.50469425 -14.02734375 42.42578125 C-14.03021393 43.20590576 -14.03308411 43.98603027 -14.03604126 44.78979492 C-14.03807628 46.43376393 -14.03258577 48.07775745 -14.02001953 49.72167969 C-14.0039569 52.23037126 -14.01988629 54.73745196 -14.0390625 57.24609375 C-14.03707997 58.84765979 -14.03323608 60.44922483 -14.02734375 62.05078125 C-14.03341644 62.79674561 -14.03948914 63.54270996 -14.04574585 64.3112793 C-13.98536754 68.80769542 -13.37584396 71.65353165 -10.62890625 75.23828125 C-4.17839609 81.04374039 1.62942973 80.48514802 9.9753418 80.53344727 C11.35532922 80.54492964 12.73527355 80.56532227 14.11499023 80.5949707 C23.0076073 80.78590011 30.06153224 80.92793267 37.01049805 74.7902832 C41.19116621 70.02148588 39.67768722 61.00483559 39.72119141 54.96069336 C39.73774159 53.27598243 39.76501969 51.59134145 39.80322266 49.90698242 C39.85818352 47.46887061 39.87989205 45.03239905 39.89453125 42.59375 C39.91720062 41.84667282 39.93987 41.09959564 39.96322632 40.32987976 C39.94782775 36.49049335 39.47684358 33.85280004 37.15087891 30.84106445 C32.28001216 26.28034863 28.13756622 25.92905015 21.65625 25.9375 C20.92288925 25.93321487 20.1895285 25.92892975 19.4339447 25.92451477 C17.88834665 25.91879159 16.34272167 25.91825634 14.79711914 25.92260742 C12.44435263 25.9257668 10.09284564 25.90228705 7.74023438 25.87695312 C6.23307449 25.8746797 4.72591125 25.87397684 3.21875 25.875 C2.52169449 25.86579025 1.82463898 25.85658051 1.10646057 25.84709167 C-4.58612523 25.900483 -8.72102089 26.99453959 -12.47900391 31.4140625 Z " fill="#FF6500" transform="translate(192.62890625,190.76171875)"/>
<path d="M0 0 C1.07507813 -0.00128906 2.15015625 -0.00257813 3.2578125 -0.00390625 C4.38960938 -0.00003906 5.52140625 0.00382813 6.6875 0.0078125 C7.81929688 0.00394531 8.95109375 0.00007812 10.1171875 -0.00390625 C11.19226563 -0.00261719 12.26734375 -0.00132812 13.375 0 C14.86580078 0.00169189 14.86580078 0.00169189 16.38671875 0.00341797 C18.6875 0.1328125 18.6875 0.1328125 19.6875 1.1328125 C19.7905984 3.41727168 19.82324078 5.70492294 19.8293457 7.99169922 C19.83455734 9.06733627 19.83455734 9.06733627 19.83987427 10.16470337 C19.84724356 11.72690932 19.85258266 13.28912583 19.85616493 14.85134506 C19.86330958 17.32229948 19.87896061 19.79305288 19.89750671 22.26394653 C19.95007238 29.29100796 19.99796977 36.31796103 20.01342773 43.34521484 C20.02349382 47.63892698 20.05278399 51.93213684 20.09474754 56.22565079 C20.10708383 57.86429169 20.11217401 59.50300347 20.10994911 61.1416893 C20.10760331 63.43338593 20.12970483 65.7236353 20.1574707 68.01513672 C20.16627007 69.97252274 20.16627007 69.97252274 20.17524719 71.9694519 C20.38174315 75.18665825 20.38174315 75.18665825 22.54093933 77.00344849 C30.26992417 81.06987785 39.81516287 81.51192198 48.265625 79.52734375 C51.35545212 78.40012904 53.95175748 76.95664084 56.6875 75.1328125 C57.16067982 71.94629505 57.16067982 71.94629505 57.10400391 68.12866211 C57.11258926 67.40821213 57.12117462 66.68776215 57.13002014 65.94548035 C57.15516165 63.55860737 57.15946578 61.17214971 57.1640625 58.78515625 C57.17836412 57.13129902 57.19411961 55.47745377 57.21127319 53.82362366 C57.25320044 49.46583434 57.27814924 45.10811927 57.29876709 40.75018311 C57.33453464 33.77042442 57.39541624 26.79084883 57.45725632 19.8112812 C57.47641393 17.36661453 57.48809613 14.92199677 57.49868774 12.47727966 C57.50889502 10.9873748 57.51925253 9.49747096 57.52978516 8.00756836 C57.53628082 6.70121933 57.54277649 5.3948703 57.54946899 4.04893494 C57.6875 1.1328125 57.6875 1.1328125 58.6875 0.1328125 C60.45609193 0.03334797 62.22861451 0.00201033 64 0 C65.07507813 -0.00128906 66.15015625 -0.00257813 67.2578125 -0.00390625 C68.38960938 -0.00003906 69.52140625 0.00382813 70.6875 0.0078125 C71.81929688 0.00394531 72.95109375 0.00007812 74.1171875 -0.00390625 C75.19226563 -0.00261719 76.26734375 -0.00132812 77.375 0 C78.36886719 0.00112793 79.36273438 0.00225586 80.38671875 0.00341797 C82.6875 0.1328125 82.6875 0.1328125 83.6875 1.1328125 C83.79856008 3.71246162 83.84489061 6.26558807 83.84863281 8.84619141 C83.85608017 10.05849426 83.85608017 10.05849426 83.86367798 11.29528809 C83.8783448 13.98332558 83.88511099 16.67130397 83.890625 19.359375 C83.89637514 21.22447716 83.90213289 23.08957929 83.90789795 24.9546814 C83.91842243 28.87392452 83.92425482 32.79314706 83.92773438 36.71240234 C83.93320558 41.72604955 83.95719797 46.73942331 83.98570633 51.752985 C84.00436968 55.61010519 84.0095404 59.46716022 84.01107025 63.32432175 C84.01409172 65.1718329 84.02210315 67.01934304 84.03525543 68.86680984 C84.05238437 71.4591034 84.05041848 74.05073861 84.04394531 76.64306641 C84.0531601 77.40179047 84.06237488 78.16051453 84.0718689 78.94223022 C84.02300327 85.2155868 82.60157938 89.83591725 78.5 94.7578125 C66.54572472 104.85253385 53.75104359 106.48527323 38.5 106.5703125 C36.7370459 106.5854187 36.7370459 106.5854187 34.93847656 106.60083008 C22.32137741 106.47607475 9.51140529 104.08558095 -0.25 95.5703125 C-0.930625 94.7659375 -1.61125 93.9615625 -2.3125 93.1328125 C-2.89 92.4521875 -3.4675 91.7715625 -4.0625 91.0703125 C-6.86371832 86.72842411 -6.45507558 81.99440856 -6.44189453 76.98364258 C-6.44452301 75.75622597 -6.44452301 75.75622597 -6.44720459 74.50401306 C-6.45160071 71.80343496 -6.4486938 69.10292249 -6.4453125 66.40234375 C-6.44598599 64.52715543 -6.44695639 62.6519672 -6.44821167 60.77677917 C-6.44968544 56.85028246 -6.44754363 52.92380852 -6.44287109 48.99731445 C-6.4371622 43.95299636 -6.44046216 38.90873133 -6.44644356 33.86441517 C-6.45004776 29.99468075 -6.44891144 26.12495902 -6.44631577 22.25522423 C-6.44564672 20.39439576 -6.44647416 18.53356616 -6.44879532 16.67273903 C-6.45132081 14.0797276 -6.44748328 11.48680369 -6.44189453 8.89379883 C-6.44391876 8.11821625 -6.44594299 7.34263367 -6.44802856 6.54354858 C-6.42294673 0.29597829 -6.16098096 0.00699203 0 0 Z " fill="#FF6400" transform="translate(276.3125,190.8671875)"/>
<path d="M0 0 C7.92 0 15.84 0 24 0 C25 1 25 1 25.12304783 3.35633183 C25.12166514 4.9367459 25.12166514 4.9367459 25.12025452 6.54908752 C25.12162918 7.75368622 25.12300385 8.95828491 25.12442017 10.1993866 C25.12088056 11.54641748 25.11724575 12.89344812 25.11352539 14.24047852 C25.11324352 15.64947508 25.11340125 17.05847179 25.1139679 18.46746826 C25.11425589 22.3040763 25.10835894 26.14065334 25.10139394 29.97725415 C25.09516063 33.98246941 25.09455662 37.9876853 25.09336853 41.99290466 C25.09025515 49.58252004 25.08204167 57.17212108 25.07201904 64.76173013 C25.06085812 73.40003924 25.05534751 82.03834901 25.05032361 90.67666352 C25.03985906 108.45111737 25.02205905 126.22555701 25 144 C16.75 144 8.5 144 0 144 C0 96.48 0 48.96 0 0 Z " fill="#FF6C00" transform="translate(115,152)"/>
</svg>
